/* XPM */
static char *_1e3a1c5ca584b7df2dee7de076fbdd2kiDjqgrgPk0Z45yi[] = {
/* columns rows colors chars-per-pixel */
"34 44 8 1 ",
"  c #3D1C12",
". c #5C3429",
"X c #7D3F2B",
"o c #296E2B",
"O c gray29",
"+ c #965E33",
"@ c #0DA112",
"# c #2C9430",
/* pixels */
"oo####ooo##@@oo@@@@##ooooo@@##oooo",
"oo####ooo##@@oo@@@@##ooooo@@##oooo",
"oo####ooo##@@oo@@@@##ooooo@@##oooo",
"oooo@@@@@##  @@oooo##@@@@@oo@@@@oo",
"oooo@@@@@##  @@oooo##@@@@@oo@@@@oo",
"oooo@@@@@##  @@oooo##@@@@@oo@@@@oo",
"@@  ##ooo@@  @@  ####oo@@@  oooo  ",
"@@  ##ooo@@  @@  ####oo@@@  oooo  ",
"  OO     @@      oo  @@   ..    ..",
"  OO     @@      oo  @@   ..    ..",
"  OO     @@      oo  @@   ..    ..",
"XX..XX+++  XX....      OOO..XX  ..",
"XX..XX+++  XX....      OOO..XX  ..",
"XX..XX+++  XX....      OOO..XX  ..",
"..  XXXXX..XX      ....   ......++",
"..  XXXXX..XX      ....   ......++",
"..  XXXXX..XX      ....   ......++",
"++  .....OO....++++..+++++..XX..XX",
"++  .....OO....++++..+++++..XX..XX",
"++..+++++XXXX....XX  XXXXX....XXXX",
"++..+++++XXXX....XX  XXXXX....XXXX",
"++..+++++XXXX....XX  XXXXX....XXXX",
"XX....XXX..XX..  ..XXXX.......  ..",
"XX....XXX..XX..  ..XXXX.......  ..",
"XX....XXX..XX..  ..XXXX.......  ..",
"XXXX  .....    ...........++++..XX",
"XXXX  .....    ...........++++..XX",
"XXXX  .....    ...........++++..XX",
"XXXX..+++++..++XX  ++++...XXXXOO..",
"XXXX..+++++..++XX  ++++...XXXXOO..",
"XX....XXXXX++..XXOOXXXX...  XX..  ",
"XX....XXXXX++..XXOOXXXX...  XX..  ",
"XX....XXXXX++..XXOOXXXX...  XX..  ",
"..  XX...XXXX++...............++++",
"..  XX...XXXX++...............++++",
"..  XX...XXXX++...............++++",
"..XX.....  ..XXXX..  ++   ..++XXXX",
"..XX.....  ..XXXX..  ++   ..++XXXX",
"..XX.....  ..XXXX..  ++   ..++XXXX",
"XX..  +++..  ..  ......   ....XXXX",
"XX..  +++..  ..  ......   ....XXXX",
"XX..++XXXXX..OOXXXXXX.....XXXX..  ",
"XX..++XXXXX..OOXXXXXX.....XXXX..  ",
"XX..++XXXXX..OOXXXXXX.....XXXX..  "
};
