/* XPM */
static char *_21d7905eff84ff38582bec2a676ec780ESekUtUuHTCUb5Z_1[] = {
/* columns rows colors chars-per-pixel */
"34 44 10 1 ",
"  c #3B2629",
". c #473534",
"X c #44353B",
"o c #3C2F64",
"O c #DFBD77",
"+ c #4962BF",
"@ c #6685DF",
"# c #D7CFB9",
"$ c #E7C2A0",
"% c white",
/* pixels */
"%%%%%%%%%%%%%%%%%%%ooooooooo%%%%%%",
"%%%%%%%%%%%%%%%%%oo@@@@O@@@+o%%%%%",
"%%%%%%%%%%%%%%%oo@O@@@@@@@+++o%%%%",
"%%%%%%%%%%%%%oo@@OOO@@@@@++oo%%%%%",
"%%%%%%%%%%%%o@@@@@O@@@O+++o%%%%%%%",
"%%%%%%%%%%%o@@O@@@@@@OOO+o%%%%%%%%",
"%%%%%%%%%%o@@OOO@@@@@@O++o%%%%%%%%",
"%%%%%%%%%%o@@@O@@@@@@@+++o%%%%%%%%",
"%%%%%%%%%o@@@@@@@@@@@@+++o%%%%%%%%",
"%%%%%%%%oOOOOO@@@@@@@@+++o%%%%%%%%",
"%%%%%%%%oOOOOOOOOOOOOOO+++o%%%%%%%",
"%%%%%%%%ooooooooooooOOOOOOo%%%%%%%",
"%%%%%ooo@@@@@@@@@@@@oooooOOo%%%%%%",
"%%%oo@@@++++++++++++@@@@@oooo%%%%%",
"%oo@@+++           ++++++++++oo%%%",
"o@++++  ... $$$$$$$    ++++++++o%%",
"o++++++ XX $$$$$$$$$ ..   ++++++o%",
"%oo++++ X $$$$$$$$$$$ ....  +++++o",
"%%%oo++  ##  ####  ##$ XX... ++++o",
"%%%%%oo ## %  ## %  ## XX XX +ooo%",
"%%%%%%% ##    ##    ##$  $ X o%%%%",
"%%%%%%% ###  ####  #####$$ X.%%%%%",
"%%%%%%%% ###############$$ X %%%%%",
"%%%%%%%% $####OOO######$$ X. %%%%%",
"%%%%%%%%% $###########$$ .. %%%%%%",
"%%%%%%%%%% $#########$$ .. %%%%%%%",
"%%%%%%%%%%% $$$$$$$$$     %%%%%%%%",
"%%%%%%%%o@@o@@@OO@@@@+@@@@+o%%%%%%",
"%%%%%%%o@@+o@@@@@@@@@++@@@@Oo%%%%%",
"%%%%%%oOO@+o@@@@@@@@@+o+@@OOOo%%%%",
"%%%%%%oOOOo@@@@@@@@@@@+o+OOOoo%%%%",
"%%%%% $oOOo@@@@O@@@@@@+oOOOo$# %%%",
"%%%%% #$ooo@@@OOO@@@@@+oOOo$## %%%",
"%%%%%% $$o@@OOO@OO@@@@++oo$$# %%%%",
"%%%%%%%  o@OO@@@@OOO@@++++   %%%%%",
"%%%%%%%%oOOO@@@@@@OOOOO+++o%%%%%%%",
"%%%%%%%%o+@@@@@@@@@@@OOOOOo%%%%%%%",
"%%%%%%%%%ooooooooooooooooo%%%%%%%%",
"%%%%%%%%%% XXX. %% XXX. %%%%%%%%%%",
"%%%%%%%%%%      %%      %%%%%%%%%%",
"%%%%%%%%%%%%%%%%%%%%%%%%%%%%%%%%%%",
"%%%%%%%%%%%%%%%%%%%%%%%%%%%%%%%%%%",
"%%%%%%%%%%%%%%%%%%%%%%%%%%%%%%%%%%",
"%%%%%%%%%%%%%%%%%%%%%%%%%%%%%%%%%%"
};
