/* XPM */
static char *_4204dca8ab54c019eac16759a61d3853PQzVNsevVGZwHOO[] = {
/* columns rows colors chars-per-pixel */
"34 44 15 1 ",
"  c None",
". c #4C252A",
"X c #572E32",
"o c #663934",
"O c #3C2F64",
"+ c #6D4045",
"@ c #805245",
"# c #DF9C31",
"$ c #DB8264",
"% c #F6CB5A",
"& c #4962BF",
"* c #6685E0",
"= c #F3BBA4",
"- c #FCD7BC",
"; c white",
/* pixels */
"                   OOOOOOOOO      ",
"                 OO****%***&O     ",
"               OO*%*******&&&O    ",
"             OO**%%%*****&&OO     ",
"            O*****%***%&&&O       ",
"           O**%******%%%&O        ",
"          O**%%%******%&&O        ",
"          O***%*******&&&O        ",
"         O************&&&O        ",
"        O#%%%%********&&&O        ",
"        O#%%%%%%%%%%%%%&&&O       ",
"        OOOOOOOOOOOO%%####O       ",
"     OOO************OOOOO##O      ",
"   OO***&&&&&&&&&&&&*****OOOO     ",
" OO**&&&...........&&&&&&&&&&OO   ",
"O*&&&&..ooo.=======....&&&&&&&&O  ",
"O&&&&&&.@@.=========.oo...&&&&&&O ",
" OO&&&&.@.===========.oooo..&&&&&O",
"   OO&&..--..----..--=.@@ooo.&&&&O",
"     OO.--.;..--.;..--.@@.@@.&OOO ",
"       .--....--....--=..=.@.O    ",
"       .---..----..-----==.@X     ",
"        .---------------==.@.     ",
"        .=----$$$------==.@o.     ",
"         .=-----------==.oo.      ",
"          .=---------==.oo.       ",
"           .=========.....        ",
"            O........##O          ",
"           O&#&&&&&###&&O         ",
"          O**%%***%%&***&O        ",
"         O****%%%%%******&O       ",
"        O**O***%%****&****&O      ",
"       O**&O*********&&****#O     ",
"      O%%*&O*********&O&**%%#O    ",
"      O#%#O***********&O&%%%OO    ",
"     .=O##O****%******&O#%%O=-.   ",
"     .-=OOO***%%%*****&O#%O=--.   ",
"      .==O**%%%*%%****&&OO==-.    ",
"       ..O*%%****%%%**&&&&...     ",
"        O#%%******%%%%#&&&O       ",
"        O&***********#####O       ",
"         OOOOOOOOOOOOOOOOO        ",
"          .+++X.  .+++X.          ",
"          ......  ......          "
};
