/* XPM */
static char *_129d140f42a47b1964c726352ef4faalOrtgUfDELeCzUAg[] = {
/* columns rows colors chars-per-pixel */
"19 19 7 1 ",
"  c None",
". c #18162A",
"X c #242A46",
"o c #263A5A",
"O c #2C5C6E",
"+ c #529894",
"@ c #7FBD8E",
/* pixels */
"      +@@@@@+      ",
"    +++@@@@@+++    ",
"   +++@@++++++++   ",
"  O+@@@++OOOOOO+O  ",
" OO+@+++OOoooOOOOO ",
" OO@@+OOOO..oooOOO ",
"OO@@++OO....ooooOOO",
"OO@@++O..@@@XXooOOO",
"OOO@++O.@@.@@XXooOO",
"OOO@++O....+@@XooOO",
"OoO@@+OO..O+@XXooOO",
"oooO@++OOOO+XXXooOO",
"oooo@+++++++XXXoooo",
" ooo@@@+++@XXXXooo ",
" ooXX@@@@@XXXXoooo ",
"  oXXXXXXXXXXXXoo  ",
"   oXXXXXXXXXXXX   ",
"    XXXXXXXXXXX    ",
"      XXXXXXX      "
};
