/* XPM */
static char *_f6114ff7fca4b80b0b98296dfc6534a50eQBTltymzcVAAN[] = {
/* columns rows colors chars-per-pixel */
"34 44 7 1 ",
"  c #4F2E5E",
". c #633975",
"X c #684E74",
"o c #72587E",
"O c #785686",
"+ c #7C4792",
"@ c #9B59B6",
/* pixels */
"@@@@@@+++++XXXX@@@@..++@@@@@@@....",
"@@@@@@+++++XXXX@@@@..++@@@@@@@....",
"@@@@@@+++++XXXX@@@@..++@@@@@@@....",
"@@@@@@@@+++..XX@@@@@@@@@@@@@++@@@@",
"@@@@@@@@+++..XX@@@@@@@@@@@@@++@@@@",
"++@@@@++...++@@@@@@@@@@@@@@@++..@@",
"++@@@@++...++@@@@@@@@@@@@@@@++..@@",
"++@@@@++...++@@@@@@@@@@@@@@@++..@@",
"..@@++..+++@@@@..++++++..@@@@@....",
"..@@++..+++@@@@..++++++..@@@@@....",
"..@@++..+++@@@@..++++++..@@@@@....",
"++++..++@@@@@..    @@OO.....@@@@..",
"++++..++@@@@@..    @@OO.....@@@@..",
"++++..++@@@@@..    @@OO.....@@@@..",
"@@@@@@@@@@@..  oo@@@@@@@@.....@@@@",
"@@@@@@@@@@@..  oo@@@@@@@@.....@@@@",
"@@@@@@@@...  ..++@@@@++@@@@@....++",
"@@@@@@@@...  ..++@@@@++@@@@@....++",
"@@@@@@@@...  ..++@@@@++@@@@@....++",
"..  ..++.......@@@@@@@@++@@@@@..++",
"..  ..++.......@@@@@@@@++@@@@@..++",
"..  ..++.......@@@@@@@@++@@@@@..++",
"......++.......@@++++@@@@+++@@@@@@",
"......++.......@@++++@@@@+++@@@@@@",
"......++.......@@++++@@@@+++@@@@@@",
"@@++@@@@...  ..++..++++@@@@@@@@@@@",
"@@++@@@@...  ..++..++++@@@@@@@@@@@",
"++  ++@@@@@..  ..++++++@@@@@++..++",
"++  ++@@@@@..  ..++++++@@@@@++..++",
"++  ++@@@@@..  ..++++++@@@@@++..++",
"++....++@@@@@....++++@@@@+++..++++",
"++....++@@@@@....++++@@@@+++..++++",
"++....++@@@@@....++++@@@@+++..++++",
"@@@@++..+++@@@@++++@@@@++...++@@@@",
"@@@@++..+++@@@@++++@@@@++...++@@@@",
"@@@@++..+++@@@@++++@@@@++...++@@@@",
"++@@@@++...++@@@@@@@@++..+++@@@@++",
"++@@@@++...++@@@@@@@@++..+++@@@@++",
"++..@@@@+++..++++++++..++@@@@@..++",
"++..@@@@+++..++++++++..++@@@@@..++",
"++..@@@@+++..++++++++..++@@@@@..++",
"..@@++++...++++++++....@@@@@@@..++",
"..@@++++...++++++++....@@@@@@@..++",
"..@@++++...++++++++....@@@@@@@..++"
};
