/* XPM */
static char *c87379de3c5c41218ec484cf1f47302auR5cgNSU4GAwFttX[] = {
/* columns rows colors chars-per-pixel */
"34 44 5 1 ",
"  c None",
". c black",
"X c #BF0000",
"o c #C4281C",
"O c gray74",
/* pixels */
"           ............           ",
"          .OOOOOOOOOOOO.          ",
"          ..............          ",
"          .OOOOOOOOOOOO.          ",
"          .OOOOOOOOOOOO.          ",
"          .OOOOOOOOOOOO.          ",
"          .OOOOOOOOOOOO.          ",
"          .OOOOOOOOOOOO.          ",
"          .OOOOOOOOOOOO.          ",
"          .OOOOOOOOOOOO.          ",
"          .OOOOOOOOOOOO.          ",
"          .OOOOOOOOOOOO.          ",
"          .OOOOOOOOOOOO.          ",
"          .OOOOOOOOOOOO.          ",
"          .OOOOOOOOOOOO.          ",
"          .OOOOOOOOOOOO.          ",
"          .OOOOOOOOOOOO.          ",
"          .OOOOOOOOOOOO.          ",
"          .OOOOOOOOOOOO.          ",
"          .OOOOOOOOOOOO.          ",
"        ..OOOOOOOOOOOOOO..        ",
"       .OOOOOOOOOOOOOOOOOO.       ",
"     ..OOOOOOOOOOOOOOOOOOOO..     ",
"    .OOOOOOOOOOOOOOOOOOOOOOOO.    ",
"   .OOOOOOOOOOOOOOOOOOOOOOOOOO.   ",
"   .OOOOOOOOOOOOOOOOOOOOOOOOOO.   ",
" ..OOOOOOOOOOOOOOOOOOOOOOOOOOOO.. ",
" ..OOOOOOOOOOOOOOOOOOOOOOOOOOOO.. ",
".OOOOOOOOOOOOOOOOOOOOOOOOOOOOOOOO.",
".OOOOOOOOOOOOOOOOOXXXXXXXXXXXXXXX.",
".XXXXXXXXXXXXXXXXXXXXXXXXXXXXXXXX.",
".XXXXXXXXXXXXXXXXXXXXXXXXXXXXXXXX.",
".XXXXXXXXXXXXXXXXXXXXXXXXXXXXXXXX.",
".oooooooooooooooooooooooooooooooo.",
" ..oooooooooooooooooooooooooooo.. ",
" ..oooooooooooooooooooooooooooo.. ",
" ..oooooooooooooooooooooooooooo.. ",
"   .oooooooooooooooooooooooooo.   ",
"   .ooooooooooooooooooooXXXXXX.   ",
"    .oooooooooXXXXXXXXXXXXXXX.    ",
"       .XXXXXXXXXXXXXXXXXX.       ",
"        ..XXXXXXXXXXXXXX..        ",
"          ..XXXXXXXXXX..          ",
"            ..........            "
};
