/* XPM */
static char *_b454ad3abca4c84fd5f68e6973b4666QHHc4limmpeQgoNV[] = {
/* columns rows colors chars-per-pixel */
"34 44 15 1 ",
"  c None",
". c #4C252A",
"X c #572E32",
"o c #663934",
"O c #3C2F64",
"+ c #6D4045",
"@ c #805245",
"# c #DF9C31",
"$ c #DB8264",
"% c #F6CB5A",
"& c #4962BF",
"* c #6685E0",
"= c #F3BBA4",
"- c #FCD7BC",
"; c white",
/* pixels */
"      OOOOOOOOO                   ",
"     O&***%****OO                 ",
"    O&&&*******%*OO               ",
"     OO&&*****%%%**OO             ",
"       O&&&%***%*****O            ",
"        O&%%%******%**O           ",
"        O&&%******%%%**O          ",
"        O&&&*******%***O          ",
"        O&&&************O         ",
"        O&&&********%%%%#O        ",
"       O&&&&%%%%%%%%%%%%#O        ",
"       O####%%OOOOOOOOOOOO        ",
"      O##OOOOO************OOO     ",
"     OOOO*****&&&&&&&&&&&&***OO   ",
"   OO&&&&&&&&&&...........&&&**OO ",
"  O&&&&&&&&....=======.ooo..&&&&*O",
" O&&&&&&...oo.=========.@@.&&&&&&O",
"O&&&&&..oooo.===========.@.&&&&OO ",
"O&&&&.ooo@@.=--..----..--..&&OO   ",
" OOO&.@@.@@.--..;.--..;.--.OO     ",
"    O.@.=..=--....--....--.       ",
"     X@.==-----..----..---.       ",
"     .@.==---------------.        ",
"     .o@.==------$$$----=.        ",
"      .oo.==-----------=.         ",
"       .oo.==---------=.          ",
"        .....=========.           ",
"            O........##O          ",
"           O&#&&&&&###&&O         ",
"          O**%%***%%&***&O        ",
"         O****%%%%%******&O       ",
"        O**O***%%****&****&O      ",
"       O**&O*********&&****#O     ",
"      O%%*&O*********&O&**%%#O    ",
"      O#%#O***********&O&%%%OO    ",
"     .=O##O****%******&O#%%O=-.   ",
"     .-=OOO***%%%*****&O#%O=--.   ",
"      .==O**%%%*%%****&&OO==-.    ",
"       ..O*%%****%%%**&&&&...     ",
"        O#%%******%%%%#&&&O       ",
"        O&***********#####O       ",
"         OOOOOOOOOOOOOOOOO        ",
"          .+++X.  .+++X.          ",
"          ......  ......          "
};
